HIERARCHY
ROOT Hips
{
  OFFSET -331.093 83.8371 -317.828
  CHANNELS 6 Xposition Yposition Zposition Zrotation Xrotation Yrotation
  JOINT LeftUpLeg
  {
    OFFSET 8.64259 1.95398 -2.38835
    CHANNELS 3 Zrotation Xrotation Yrotation
    JOINT LeftLeg
    {
      OFFSET 43.7702 0 0
      CHANNELS 3 Zrotation Xrotation Yrotation
      JOINT LeftFoot
      {
        OFFSET 40.6238 0 0
        CHANNELS 3 Zrotation Xrotation Yrotation
        JOINT LeftToeBase
        {
          OFFSET 12.7242 0 0
          CHANNELS 3 Zrotation Xrotation Yrotation
          End Site
          {
            OFFSET 0 0 0
          }
        }
      }
    }
  }
  JOINT RightUpLeg
  {
    OFFSET -8.2249 1.95398 -2.59336
    CHANNELS 3 Zrotation Xrotation Yrotation
    JOINT RightLeg
    {
      OFFSET 43.5653 0 0
      CHANNELS 3 Zrotation Xrotation Yrotation
      JOINT RightFoot
      {
        OFFSET 40.6238 0 0
        CHANNELS 3 Zrotation Xrotation Yrotation
        JOINT RightToeBase
        {
          OFFSET 12.7242 0 0
          CHANNELS 3 Zrotation Xrotation Yrotation
          End Site
          {
            OFFSET 0 0 0
          }
        }
      }
    }
  }
  JOINT Spine
  {
    OFFSET 0.165834 0.87714 6.61349
    CHANNELS 3 Zrotation Xrotation Yrotation
    JOINT Spine1
    {
      OFFSET 7.38963 1.71661e-005 0
      CHANNELS 3 Zrotation Xrotation Yrotation
      JOINT Spine2
      {
        OFFSET 11.9445 1.14441e-005 0
        CHANNELS 3 Zrotation Xrotation Yrotation
        JOINT Spine3
        {
          OFFSET 14.7254 4.19617e-005 0
          CHANNELS 3 Zrotation Xrotation Yrotation
          JOINT Spine4
          {
            OFFSET 10.9679 0 0
            CHANNELS 3 Zrotation Xrotation Yrotation
            JOINT RightShoulder
            {
              OFFSET 2.46616 -1.6653 3.69651
              CHANNELS 3 Zrotation Xrotation Yrotation
              JOINT RightArm
              {
                OFFSET 13.0012 0 0
                CHANNELS 3 Zrotation Xrotation Yrotation
                JOINT RightForeArm
                {
                  OFFSET 28.7848 1.62311e-005 0
                  CHANNELS 3 Zrotation Xrotation Yrotation
                  JOINT RightHand
                  {
                    OFFSET 26.5688 1.62095e-005 0
                    CHANNELS 3 Zrotation Xrotation Yrotation
                    End Site
                    {
                      OFFSET 0 0 0
                    }
                  }
                }
              }
            }
            JOINT LeftShoulder
            {
              OFFSET 2.38034 -1.29275 -3.7523
              CHANNELS 3 Zrotation Xrotation Yrotation
              JOINT LeftArm
              {
                OFFSET 16.3182 6.07031e-005 0
                CHANNELS 3 Zrotation Xrotation Yrotation
                JOINT LeftForeArm
                {
                  OFFSET 27.0901 0 0
                  CHANNELS 3 Zrotation Xrotation Yrotation
                  JOINT LeftHand
                  {
                    OFFSET 24.5451 1.51738e-005 0
                    CHANNELS 3 Zrotation Xrotation Yrotation
                    End Site
                    {
                      OFFSET 0 0 0
                    }
                  }
                }
              }
            }
            JOINT Neck
            {
              OFFSET 5.0226 -0.0266342 0
              CHANNELS 3 Zrotation Xrotation Yrotation
              JOINT Head
              {
                OFFSET 6.69364 2.86102e-005 0
                CHANNELS 3 Zrotation Xrotation Yrotation
                End Site
                {
                  OFFSET 0 0 0
                }
              }
            }
          }
        }
      }
    }
  }
}
MOTION
Frames:	13
Frame Time:	0.0416667
13.9828 99.5104 -113.471 -78.6663 -84.7488 -81.0233 -176.81 6.16892 88.1811 -13.5302 -1.62986 0.787843 66.6566 4.43431 2.65795 18.3678 -7.06714 6.25733 168.308 6.37838 83.3477 -11.4328 -21.3039 -1.56233 64.915 -2.61589 -1.46199 31.3819 -0.559163 -3.63699 0.136631 6.95151 -89.8694 12.9705 0.334003 0.220538 1.2996 0.343376 0.205613 -21.2356 0.252274 0.310728 -1.22297 0.252269 0.310716 91.2185 -40.3228 -100.839 33.9253 -17.9352 -0.373124 -9.88701 -16.5657 -39.0706 -5.52357 -0.380577 0.745478 -96.2778 -50.7237 70.1673 -23.2888 12.4661 1.52541 9.0589 17.8885 -38.2824 6.6104 0.73464 6.10533 -2.95884 1.54951 4.62559 2.50105 0.979875 -0.665341 
13.9554 99.4899 -113.412 -78.2714 -84.5837 -80.574 -176.148 6.06354 88.5562 -13.2813 -0.305375 0.0298257 67.0011 5.54572 3.9099 16.4691 -8.58171 6.36617 168.241 6.11201 83.3677 -10.7631 -20.4786 -1.52934 64.872 -2.6343 -1.46571 31.0791 -0.380132 -2.45569 0.19817 6.97127 -89.8981 12.9311 0.442422 0.150203 1.26021 0.448611 0.130578 -21.2753 0.376826 0.276232 -1.26269 0.376825 0.276219 91.471 -40.0258 -100.482 34.2155 -18.0054 -0.25843 -9.03196 -14.3871 -39.1564 -6.14353 -0.356344 -0.32098 -96.7457 -50.942 69.5586 -22.9257 12.2038 1.1203 8.39925 17.1545 -37.5096 6.84753 0.602831 4.21808 -2.44793 1.45102 4.23611 2.49761 0.940738 0.195367 
14.0932 99.4501 -113.458 -77.9239 -84.7541 -80.2579 -175.58 6.24032 88.7368 -13.5768 1.43313 -0.715315 66.6949 6.58103 5.27293 19.1068 -6.17415 9.5305 168.289 6.12362 83.2963 -10.9163 -19.7592 -1.68677 64.8942 -2.57913 -1.42757 31.8018 -0.336912 -1.96839 0.218433 7.00351 -89.9099 12.8667 0.47698 0.122785 1.19584 0.481926 0.10167 -21.3398 0.418022 0.260465 -1.32719 0.418023 0.260461 91.5932 -39.9546 -100.289 34.4026 -17.945 0.376675 -9.75509 -13.6242 -41.6794 -6.38317 -0.382768 0.254418 -97.207 -51.1364 68.9563 -22.6475 11.526 1.47929 7.38655 15.248 -37.1148 6.88616 0.490574 2.78525 -1.83669 1.24542 3.15372 2.31117 0.900324 1.60778 
14.4731 99.5265 -113.633 -79.2344 -85.2488 -81.7739 -175.337 7.26227 88.7494 -16.0371 1.60836 -0.938538 65.2013 3.53104 1.88302 31.9363 6.30379 13.5552 168.579 5.60708 83.1064 -10.2032 -18.964 -2.33834 63.9965 -2.1599 -1.18314 33.2361 -0.341089 -1.66807 0.215742 7.05125 -89.9373 12.7713 0.458462 0.0705923 1.10044 0.461128 0.0503408 -21.4353 0.416048 0.205112 -1.42263 0.416056 0.20512 91.7239 -39.3824 -100.211 34.6942 -18.5039 1.45857 -10.3884 -12.83 -45.407 -6.58716 -0.470844 2.1736 -98.3327 -51.6504 67.5133 -22.2063 10.4286 2.56232 5.14242 11.6523 -36.1609 6.607 0.380859 1.60735 -1.72071 0.816504 2.51747 2.52584 0.57565 2.14876 
15.0603 99.2971 -113.937 -87.5111 -85.2631 -90.8697 -174.617 6.79072 88.0441 -16.781 1.66356 -1.95804 66.1905 6.65286 5.07905 33.1692 7.33905 13.2981 168.748 6.69515 82.0957 -13.0424 -19.2222 -3.08762 64.7978 -2.31 -1.27975 35.0651 -0.433045 -1.85401 0.164606 7.18939 -89.8857 12.4948 0.381467 0.184224 0.823897 0.389206 0.16726 -21.7115 0.308459 0.290357 -1.69882 0.308463 0.290355 91.8452 -38.7235 -100.17 34.1942 -21.5562 1.26446 -11.9915 -12.8238 -49.2364 -10.2784 -0.711718 2.45061 -98.6964 -51.734 67.0231 -22.1713 9.66312 3.77517 0.360758 4.37715 -33.7203 8.71662 0.338699 0.0494234 -1.97311 0.559189 0.721765 3.72925 0.655935 3.88088 
15.7255 99.1536 -114.456 -89.4707 -84.9352 -92.7967 -174.056 8.42727 88.2488 -20.8757 0.371266 -2.13345 67.8352 7.1608 4.3152 33.6956 7.84092 13.2886 169.265 7.38202 81.935 -13.8957 -19.1298 -3.63414 63.9447 -1.87748 -1.03827 42.6161 -1.53892 -5.21475 0.0869839 7.31575 -89.9307 12.2423 0.205761 0.115337 0.571391 0.210646 0.106156 -21.9638 0.161592 0.171846 -1.95117 0.161589 0.171838 92.472 -37.5647 -99.356 32.2775 -27.2632 -0.757564 -13.3134 -12.5095 -54.988 -14.294 -0.967882 2.53284 -99.3174 -51.6489 66.1115 -22.1254 6.98918 5.34766 -1.97819 -0.390368 -31.1278 9.23024 0.255261 -0.948315 -2.20817 0.39475 -2.02174 5.3687 1.0385 6.33394 
16.4768 98.7972 -115.233 -85.0868 -83.8519 -88.1407 -173.42 11.0498 88.8569 -25.5914 -0.488967 -2.23386 68.8083 7.64848 4.4306 34.4188 8.72646 13.8272 170.669 9.48127 82.2034 -16.1767 -19.0908 -4.448 63.8129 -1.91281 -1.04093 51.3797 -3.31413 -8.93741 -0.0409753 7.45764 -90.0484 11.9587 -0.104265 -0.085603 0.287777 -0.107924 -0.0809382 -22.2474 -0.0737144 -0.112978 -2.23474 -0.0737157 -0.112989 93.454 -36.0959 -97.942 27.1921 -34.3854 -6.38813 -15.1694 -10.552 -61.1857 -14.1053 -0.918047 2.1864 -99.5446 -51.3789 65.6943 -22.2004 3.18447 6.86758 -2.75528 -3.55266 -28.4348 8.93981 0.167241 -1.75948 -2.66317 0.852282 -4.55034 7.49956 2.12059 9.01898 
17.2919 98.1712 -116.258 -84.1444 -82.1719 -87.4609 -172.817 13.9102 89.4212 -31.144 -0.46714 -2.33898 69.0657 6.89914 3.32848 36.3935 11.2388 15.2739 172.986 13.0829 81.9064 -21.4848 -18.7143 -5.48633 65.0877 -2.88947 -1.53356 53.1764 -4.21142 -10.9424 -0.258391 7.68819 -90.129 11.4971 -0.574353 -0.198414 -0.173775 -0.582525 -0.172954 -22.7096 -0.488174 -0.36186 -2.69691 -0.488164 -0.361863 94.5286 -34.7684 -96.2557 18.1891 -40.8098 -16.3622 -16.996 -6.6439 -68.2169 -12.5415 -0.706351 0.977744 -100.031 -51.3944 65.0084 -21.4218 -1.39762 9.10396 -2.04023 -4.59964 -26.3689 7.13861 0.168094 -1.2482 -3.23956 1.53439 -6.02282 10.0304 3.32885 10.8543 
17.9015 97.339 -117.151 -84.2066 -80.1051 -87.4245 -171.945 16.6352 91.0546 -36.9786 0.700819 -2.29968 69.2651 6.17871 2.46868 37.4093 12.4864 15.8168 176.62 17.0917 82.1615 -28.2973 -16.0121 -7.11239 66.2561 -3.82041 -1.97418 51.0245 -4.16332 -11.6214 -0.430783 7.93031 -90.1684 11.0124 -0.935572 -0.245601 -0.658183 -0.945477 -0.204186 -23.1953 -0.818501 -0.515442 -3.18269 -0.818501 -0.515438 95.1206 -33.803 -95.3478 7.7455 -44.1884 -27.9373 -19.4776 -3.24971 -74.9482 -11.4343 -0.62736 0.754163 -100.082 -50.8946 64.7565 -19.52 -5.03971 11.6514 -1.54104 -6.00104 -24.4409 3.84923 0.0490005 -1.80285 -4.53982 2.27467 -6.23446 12.8456 4.27257 10.7846 
18.5104 95.9749 -117.987 -85.0936 -78.0565 -88.6022 -171.061 18.5991 92.9557 -42.0672 1.04902 -2.06954 70.464 6.40982 1.68886 37.4497 12.513 15.7855 -179.398 21.1014 81.7433 -35.3683 -12.0062 -9.18 67.1687 -4.37564 -2.22508 47.6617 -3.68617 -11.4841 -0.554886 8.1586 -90.0373 10.5576 -1.12231 0.0267137 -1.11287 -1.12005 0.0760865 -23.6518 -1.07845 -0.311859 -3.63911 -1.07845 -0.311875 95.2784 -33.7501 -95.0584 -1.47966 -44.3604 -38.4197 -23.1815 0.989554 -81.1055 -8.87593 -0.55861 1.58063 -99.3144 -49.7699 65.4523 -16.3386 -7.77825 14.1669 -1.68426 -9.48069 -22.491 7.14807 0.26422 -0.0850883 -6.45682 3.07505 -6.72257 15.5387 5.27257 10.8519 
18.9422 94.1659 -118.7 -85.3899 -76.9768 -89.2179 -170.83 20.6518 95.2245 -46.8837 1.94634 -1.20767 70.7562 6.59397 1.80623 36.9636 12.8688 17.7737 -175.953 24.1504 80.4992 -41.1918 -11.1986 -10.7501 67.6071 -4.67065 -2.34056 45.9337 -3.12386 -10.2504 -0.679593 8.33946 -89.8622 10.1969 -1.29122 0.382536 -1.47345 -1.27313 0.438993 -24.0137 -1.34648 -0.0232885 -4.00104 -1.34648 -0.0232875 95.1128 -32.9376 -95.5479 -4.27789 -41.6129 -43.9303 -26.3341 4.77587 -86.0613 -7.44185 -0.547887 2.88091 -97.7232 -48.7488 67.4142 -11.3145 -10.2146 16.6439 -2.30746 -14.0868 -22.5465 9.87181 0.541634 1.46294 -8.40773 3.47909 -7.13985 18.182 6.01747 11.7998 
19.2487 92.361 -119.34 -87.7961 -77.6678 -91.9664 -171.255 21.896 97.9986 -50.0792 3.24613 0.208776 68.5212 6.25977 3.50269 40.3251 15.0565 14.9612 -174.771 25.6372 79.2512 -45.7574 -12.3333 -11.7838 69.4131 -5.45711 -2.8488 47.5914 -1.71103 -4.76196 -0.812759 8.54207 -89.6527 9.79549 -1.46267 0.806221 -1.8749 -1.42577 0.869817 -24.4163 -1.63734 0.329258 -4.4036 -1.63734 0.32926 94.8806 -32.4353 -96.107 -3.01264 -37.3126 -45.0442 -26.356 7.7567 -90.7437 -8.34392 -0.696199 4.39379 -95.5458 -46.8463 70.0244 -5.3522 -14.4913 18.4845 -2.12878 -16.7696 -24.478 12.3961 0.68211 1.59855 -9.59461 3.13398 -7.35571 20.244 5.76564 11.4361 
19.2422 90.4302 -120.226 -88.7047 -78.1567 -92.1255 -171.636 23.7307 102.559 -52.2037 5.0718 1.64313 68.3712 7.86273 5.58393 37.4451 12.2256 15.1173 -174.289 28.41 79.7116 -50.7217 -11.1017 -11.633 71.4573 -6.38752 -3.51213 48.544 -1.14313 -2.64072 -0.730148 8.68147 -89.5721 9.51573 -1.26294 0.944146 -2.15498 -1.22016 0.998814 -24.694 -1.48831 0.520888 -4.68137 -1.4883 0.520885 94.3519 -32.3829 -97.1437 0.567071 -31.045 -42.7472 -24.3819 9.88517 -94.1801 -9.16838 -0.797004 5.00852 -93.1326 -44.5147 73.0121 1.34258 -21.2496 18.7619 0.807471 -12.3428 -27.8925 11.894 0.694526 1.89702 -10.688 2.60113 -7.1066 22.2471 5.04563 9.90964 
